<svg xmlns="http://www.w3.org/2000/svg" width="1120" height="440" viewBox="0 0 1120 440" font-family="-apple-system, 'Segoe UI', Helvetica, Arial, sans-serif">
  <rect width="1120" height="440" fill="#ffffff"/>
  <rect x="0" y="0" width="1120" height="64" fill="#f3f1ec"/>
  <line x1="0" y1="64" x2="1120" y2="64" stroke="#e2ded4" stroke-width="1.5"/>
  <circle cx="32" cy="32" r="8" fill="#d6d1c5"/><circle cx="60" cy="32" r="8" fill="#d6d1c5"/><circle cx="88" cy="32" r="8" fill="#d6d1c5"/>
  <rect x="300" y="14" width="520" height="36" rx="18" fill="#ffffff" stroke="#e2ded4"/>
  <text x="560" y="38" font-family="'SF Mono', Menlo, Consolas, monospace" font-size="17" fill="#5b554c" text-anchor="middle">localhost:8000/docs</text>
  <text x="48" y="136" font-family="-apple-system, 'Segoe UI', Helvetica, Arial, sans-serif" font-size="30" font-weight="700" fill="#3b4151">FastAPI</text>
  <rect x="168" y="117.4" width="52" height="22" rx="11" fill="#7d8492"/>
  <text x="194" y="133.4" font-family="-apple-system, 'Segoe UI', Helvetica, Arial, sans-serif" font-size="12.5" font-weight="700" fill="#ffffff" text-anchor="middle">0.1.0</text>
  <rect x="230" y="117.4" width="62" height="22" rx="11" fill="#89bf04"/>
  <text x="261" y="133.4" font-family="-apple-system, 'Segoe UI', Helvetica, Arial, sans-serif" font-size="12.5" font-weight="700" fill="#ffffff" text-anchor="middle">OAS 3.1</text>
  <text x="48" y="164" font-family="'SF Mono', Menlo, Consolas, monospace" font-size="13" fill="#4990e2">/openapi.json</text>
  <text x="48" y="248" font-family="-apple-system, 'Segoe UI', Helvetica, Arial, sans-serif" font-size="23" font-weight="700" fill="#3b4151">default</text>
  <path d="M 1044 238 l 9 9 l 9 -9" stroke="#8b8b8b" stroke-width="2.5" fill="none" stroke-linecap="round"/>
  <line x1="48" y1="264" x2="1072" y2="264" stroke="#ebebeb" stroke-width="1.5"/>
  <rect x="48" y="288" width="1024" height="56" rx="6" fill="#ebf3fb" stroke="#61affe"/>
  <rect x="64" y="298" width="84" height="36" rx="4" fill="#61affe"/>
  <text x="106" y="322" font-family="-apple-system, 'Segoe UI', Helvetica, Arial, sans-serif" font-size="16" font-weight="700" fill="#ffffff" text-anchor="middle">GET</text>
  <text x="170" y="323" font-family="'SF Mono', Menlo, Consolas, monospace" font-size="17" font-weight="600" fill="#3b4151">/</text>
  <text x="200" y="322" font-family="-apple-system, 'Segoe UI', Helvetica, Arial, sans-serif" font-size="15" fill="#8b8b8b">Health Check</text>
  <path d="M 1034 311 l 9 9 l 9 -9" stroke="#8b8b8b" stroke-width="2.5" fill="none" stroke-linecap="round"/>
</svg>