<svg xmlns="http://www.w3.org/2000/svg" width="1280" height="720" viewBox="0 0 1280 720">
  <rect width="1280" height="720" fill="#faf9f6"/>
  <text x="1216" y="600" font-family="'SF Mono', Menlo, Consolas, monospace" font-size="400" fill="#e9e5d9" text-anchor="end" letter-spacing="-8">02</text>
  <line x1="64" y1="72" x2="1216" y2="72" stroke="#e7e3d9" stroke-width="1.5"/>
  <line x1="64" y1="648" x2="1216" y2="648" stroke="#e7e3d9" stroke-width="1.5"/>
  <text x="64" y="118" font-family="'SF Mono', Menlo, Consolas, monospace" font-size="19" letter-spacing="3.5" fill="#8f887a">SERIES · LANGGRAPH FROM SCRATCH</text>
  <text x="1216" y="118" font-family="'SF Mono', Menlo, Consolas, monospace" font-size="19" letter-spacing="3.5" fill="#8f887a" text-anchor="end">PART 2 OF 8</text>
  <text x="62" y="342" font-family="Georgia, 'Times New Roman', serif" font-size="92" fill="#1f1c19" letter-spacing="-1">FastAPI <tspan font-style="italic" fill="#b3441a">fundamentals</tspan></text>
  <text x="64" y="412" font-family="Georgia, 'Times New Roman', serif" font-size="36" font-style="italic" fill="#5b554c">Request bodies, validation, and the docs page you didn't write.</text>
  <g transform="translate(64,512) scale(0.4375)"><path d="M56.813 127.586c-1.903-.227-3.899-.52-4.434-.652a48.078 48.078 0 00-2.375-.5 36.042 36.042 0 01-2.703-.633c-4.145-1.188-4.442-1.285-7.567-2.563-2.875-1.172-8.172-3.91-9.984-5.156-.496-.344-.96-.621-1.031-.621-.07 0-1.23-.816-2.578-1.813-8.57-6.343-15.004-14.043-19.653-23.527-.8-1.629-1.453-3.074-1.453-3.21 0-.134-.144-.505-.32-.817-.363-.649-.88-2.047-1.297-3.492a20.047 20.047 0 00-.625-1.813c-.195-.46-.352-1.02-.352-1.246 0-.227-.195-.965-.433-1.645-.238-.675-.43-1.472-.43-1.77 0-.296-.187-1.32-.418-2.276C.598 73.492 0 67.379 0 63.953c0-3.422.598-9.535 1.16-11.894.23-.957.418-2 .418-2.32 0-.321.145-.95.32-1.4.18-.448.41-1.253.516-1.788.11-.535.36-1.457.563-2.055l.59-1.726c.433-1.293.835-2.387 1.027-2.813.11-.238.539-1.21.957-2.16.676-1.535 2.125-4.43 2.972-5.945.309-.555.426-.739 2.098-3.352 2.649-4.148 7.176-9.309 11.39-12.988 1.485-1.297 6.446-5.063 6.669-5.063.062 0 .53-.281 1.043-.625 1.347-.902 2.668-1.668 4.39-2.531a53.06 53.06 0 001.836-.953c.285-.164.82-.41 3.567-1.64.605-.27 1.257-.516 3.136-1.173.414-.144 1.246-.449 1.84-.672.598-.222 1.301-.406 1.563-.406.258 0 .937-.18 1.508-.402.57-.223 1.605-.477 2.304-.563.696-.082 1.621-.277 2.055-.43.43-.148 1.61-.34 2.621-.425a72.572 72.572 0 003.941-.465c2.688-.394 8.532-.394 11.192 0a75.02 75.02 0 003.781.445c.953.079 2.168.278 2.703.442.535.16 1.461.36 2.055.433.594.079 1.594.325 2.222.551.63.23 1.344.414 1.59.414s.754.137 1.125.309c.375.168 1.168.449 1.766.625.594.18 1.613.535 2.27.797.652.261 1.527.605 1.945.761.77.29 6.46 3.137 7.234 3.622 6.281 3.917 9.512 6.476 13.856 10.964 5.238 5.414 8.715 10.57 12.254 18.16.25.536.632 1.329.851 1.758.215.434.395.942.395 1.13 0 .19.18.76.402 1.269.602 1.383 1.117 2.957 1.36 4.16.12.59.343 1.32.495 1.621.153.3.332 1.063.403 1.688.07.624.277 1.648.453 2.269 1.02 3.531 1.527 13.934.91 18.535-.183 1.367-.39 3.02-.46 3.672-.118 1.117-.708 4.004-1.212 5.945l-.52 2.055c-.98 3.957-3.402 9.594-6.359 14.809-1.172 2.07-5.101 7.668-5.843 8.324-.067.058-.399.45-.735.863-.336.418-1.414 1.586-2.39 2.594-4.301 4.441-7.77 7.187-13.86 10.969-.722.449-6.847 3.441-7.992 3.906-.594.238-1.586.64-2.203.89-.613.247-1.297.454-1.512.458-.215.003-.781.195-1.258.425-.476.23-1.082.422-1.351.426-.266.004-1.043.192-1.727.418-.683.23-1.633.477-2.11.55-.476.075-1.495.278-2.269.45-.773.172-3.11.508-5.187.746a59.06 59.06 0 01-13.945-.031zm4.703-12.5c.3-.234.609-.7.691-1.027.18-.723 29.234-58.97 29.781-59.7.461-.617.504-1.605.082-1.953-.222-.187-3.004-.246-10.43-.234-5.57.012-10.253.016-10.406.012-.226-.008-.273-3.73-.25-19.672.016-10.817-.035-19.766-.113-19.89-.078-.126-.383-.227-.68-.227-.418 0-.613.18-.87.808-.485 1.168-1.825 3.82-8.348 16.485a3554.569 3554.569 0 00-4.055 7.89c-1.156 2.262-2.98 5.813-4.047 7.89a8751.248 8751.248 0 00-8.598 16.759c-4.933 9.636-5.53 10.785-5.742 11.039-.41.496-.633 1.64-.402 2.07.21.394.629.41 11.043.394 5.953-.007 10.863.024 10.914.07.137.141.086 37.31-.055 38.196-.093.582-.031.89.235 1.156.46.461.586.457 1.25-.066zm0 0" fill="#1f1c19" fill-rule="evenodd" opacity="0.85"/></g><circle cx="159" cy="540" r="3.5" fill="#8f887a"/>
  <g transform="translate(198,512) scale(2.3333)"><path d="M6.099 6H17.9C21.264 6 24 8.692 24 12s-2.736 6-6.099 6H6.1C2.736 18 0 15.308 0 12s2.736-6 6.099-6zm5.419 9.3c.148.154.367.146.561.106l.002.001c.09-.072-.038-.163-.16-.25-.074-.052-.145-.102-.166-.147.068-.08-.133-.265-.289-.408a1.52 1.52 0 01-.15-.148c-.11-.119-.155-.268-.2-.418-.03-.1-.06-.2-.11-.292-.304-.694-.653-1.383-1.143-1.97-.315-.39-.674-.74-1.033-1.09a19.384 19.384 0 01-.683-.688c-.226-.229-.362-.511-.499-.794-.114-.236-.228-.473-.396-.68-.507-.735-2.107-.936-2.342.104 0 .032-.01.052-.039.073-.13.094-.245.2-.342.327-.238.326-.274.877.022 1.17l.001-.019c.01-.147.02-.286.139-.391.228.193.576.262.841.117.32.45.422.995.525 1.54.085.456.17.912.382 1.316l.014.022c.124.203.25.41.41.587.059.089.178.184.297.279.157.125.314.25.329.359v.143c-.001.285-.002.58.184.813.103.205-.15.41-.352.385-.112.015-.233-.014-.354-.042-.165-.04-.329-.078-.462-.003-.038.04-.091.04-.145.042-.064.002-.129.004-.167.07-.008.019-.026.04-.045.063-.042.05-.087.105-.033.146l.015-.01c.082-.062.16-.12.27-.084-.014.08.039.102.092.123l.027.012a.344.344 0 01-.008.056c-.009.045-.017.088.018.127a.598.598 0 00.046-.054c.037-.046.073-.092.139-.11.144.19.289.111.471.013.206-.111.459-.248.81-.055-.135-.006-.255.01-.345.12-.023.024-.042.052-.002.084.207-.132.294-.085.375-.04.06.032.115.063.212.024l.07-.036c.155-.083.314-.166.499-.137-.139.039-.188.125-.242.218-.026.047-.054.095-.094.14-.021.021-.03.046-.007.08.29-.023.4-.095.548-.192.07-.046.15-.099.261-.154.124-.075.248-.027.368.02.13.05.255.098.371-.014.037-.033.083-.034.129-.034.016 0 .033 0 .05-.002-.037-.19-.24-.188-.448-.186-.24.003-.483.006-.475-.289.222-.149.224-.407.226-.651 0-.06 0-.117.005-.173.163.09.336.16.508.229.162.065.323.13.474.21.158.25.404.58.732.558.008-.026.016-.047.026-.073.019.004.039.008.059.014.086.02.178.044.223-.056zm6.429-2.829c.19.186.447.29.716.29.269 0 .526-.104.716-.29a.98.98 0 00.297-.7.98.98 0 00-.297-.7 1.024 1.024 0 00-1.08-.224l-.58-.831-.405.272.583.835a.978.978 0 00.05 1.348zm-1.817-2.69a1.03 1.03 0 001.056-.095.991.991 0 00.363-.507.97.97 0 00-.016-.62.994.994 0 00-.39-.488 1.028 1.028 0 00-1.298.14.987.987 0 00-.263.856.98.98 0 00.187.42c.095.125.218.225.36.294zm0 5.752a1.032 1.032 0 001.056-.095.991.991 0 00.363-.507.97.97 0 00-.016-.62.994.994 0 00-.39-.488 1.027 1.027 0 00-1.298.14.986.986 0 00-.263.856.98.98 0 00.187.42c.095.125.218.225.36.294zm.93-3.516v-.492h-1.55a.977.977 0 00-.217-.404l.584-.847-.425-.276-.583.847a1.023 1.023 0 00-1.047.23.973.973 0 00-.296.696c0 .261.107.512.296.696a1.023 1.023 0 001.047.23l.583.847.42-.276-.579-.847a.977.977 0 00.217-.404h1.55z" fill="#1f1c19" fill-rule="evenodd" opacity="0.85"/></g><circle cx="293" cy="540" r="3.5" fill="#8f887a"/>
  <g transform="translate(332,512) scale(2.3333)"><path d="M9.205 8.658v-2.26c0-.19.072-.333.238-.428l4.543-2.616c.619-.357 1.356-.523 2.117-.523 2.854 0 4.662 2.212 4.662 4.566 0 .167 0 .357-.024.547l-4.71-2.759a.797.797 0 00-.856 0l-5.97 3.473zm10.609 8.8V12.06c0-.333-.143-.57-.429-.737l-5.97-3.473 1.95-1.118a.433.433 0 01.476 0l4.543 2.617c1.309.76 2.189 2.378 2.189 3.948 0 1.808-1.07 3.473-2.76 4.163zM7.802 12.703l-1.95-1.142c-.167-.095-.239-.238-.239-.428V5.899c0-2.545 1.95-4.472 4.591-4.472 1 0 1.927.333 2.712.928L8.23 5.067c-.285.166-.428.404-.428.737v6.898zM12 15.128l-2.795-1.57v-3.33L12 8.658l2.795 1.57v3.33L12 15.128zm1.796 7.23c-1 0-1.927-.332-2.712-.927l4.686-2.712c.285-.166.428-.404.428-.737v-6.898l1.974 1.142c.167.095.238.238.238.428v5.233c0 2.545-1.974 4.472-4.614 4.472zm-5.637-5.303l-4.544-2.617c-1.308-.761-2.188-2.378-2.188-3.948A4.482 4.482 0 014.21 6.327v5.423c0 .333.143.571.428.738l5.947 3.449-1.95 1.118a.432.432 0 01-.476 0zm-.262 3.9c-2.688 0-4.662-2.021-4.662-4.519 0-.19.024-.38.047-.57l4.686 2.71c.286.167.571.167.856 0l5.97-3.448v2.26c0 .19-.07.333-.237.428l-4.543 2.616c-.619.357-1.356.523-2.117.523zm5.899 2.83a5.947 5.947 0 005.827-4.756C22.287 18.339 24 15.84 24 13.296c0-1.665-.713-3.282-1.998-4.448.119-.5.19-.999.19-1.498 0-3.401-2.759-5.947-5.946-5.947-.642 0-1.26.095-1.88.31A5.962 5.962 0 0010.205 0a5.947 5.947 0 00-5.827 4.757C1.713 5.447 0 7.945 0 10.49c0 1.666.713 3.283 1.998 4.448-.119.5-.19 1-.19 1.499 0 3.401 2.759 5.946 5.946 5.946.642 0 1.26-.095 1.88-.309a5.96 5.96 0 004.162 1.713z" fill="#1f1c19" fill-rule="evenodd" opacity="0.85"/></g><circle cx="427" cy="540" r="3.5" fill="#8f887a"/>
  <g transform="translate(466,512) scale(2.3333)"><path d="M13.827 3.52h3.603L24 20h-3.603l-6.57-16.48zm-7.258 0h3.767L16.906 20h-3.674l-1.343-3.461H5.017l-1.344 3.46H0L6.57 3.522zm4.132 9.959L8.453 7.687 6.205 13.48H10.7z" fill="#1f1c19" fill-rule="evenodd" opacity="0.85"/></g><circle cx="561" cy="540" r="3.5" fill="#8f887a"/>
  <g transform="translate(600,512) scale(1.1667)"><path d="M18.974,31.5c0,0.828-0.671,1.5-1.5,1.5s-1.5-0.672-1.5-1.5v-14c0-0.653,0.423-1.231,1.045-1.43 c0.625-0.198,1.302,0.03,1.679,0.563l16.777,23.704C40.617,36.709,44,30.735,44,24c0-11-9-20-20-20S4,13,4,24s9,20,20,20 c3.192,0,6.206-0.777,8.89-2.122L18.974,22.216V31.5z M28.974,16.5c0-0.828,0.671-1.5,1.5-1.5s1.5,0.672,1.5,1.5v13.84l-3-4.227 V16.5z" fill="#1f1c19" fill-rule="evenodd" opacity="0.85"/></g>
</svg>
