<svg xmlns="http://www.w3.org/2000/svg" width="1180" height="470" viewBox="0 0 1180 470" font-family="-apple-system, 'Segoe UI', Helvetica, Arial, sans-serif">
  <rect width="1180" height="470" fill="#f5f5f4"/>
  <text x="40" y="50" font-family="'SF Mono', Menlo, Consolas, monospace" font-size="14" letter-spacing="2.5" fill="#8f887a">STREAMING &#183; localhost:3000 &#183; ONE ANSWER, ARRIVING</text>
  
  <rect x="40" y="86" width="336" height="300" rx="14" fill="#ffffff" stroke="#e7e5e4" stroke-width="1.5"/>
  <text x="62" y="120" font-family="-apple-system, 'Segoe UI', Helvetica, Arial, sans-serif" font-size="15" font-weight="700" fill="#1c1917">Chatbot</text>
  <line x1="40" y1="138" x2="376" y2="138" stroke="#eceae8" stroke-width="1.5"/>
  <rect x="180" y="160" width="174" height="41" rx="13" fill="#1c1917"/>
  <text x="195" y="185" font-family="-apple-system, 'Segoe UI', Helvetica, Arial, sans-serif" font-size="15" fill="#fafaf9">Explain recursion.</text>
  <rect x="62" y="217" width="126" height="41" rx="13" fill="#f5f5f4"/>
  <text x="77" y="242" font-family="-apple-system, 'Segoe UI', Helvetica, Arial, sans-serif" font-size="15" fill="#1c1917">Recursion is</text>
  <rect x="176" y="228" width="3" height="16" rx="1" fill="#b3441a"/>
  <text x="208" y="420" font-family="'SF Mono', Menlo, Consolas, monospace" font-size="14" fill="#78716c" text-anchor="middle">t = 0.3s</text>
  <path d="M 391 227 l 11 9 l -11 9" fill="none" stroke="#b3441a" stroke-width="3" stroke-linecap="round" stroke-linejoin="round"/>
  <rect x="422" y="86" width="336" height="300" rx="14" fill="#ffffff" stroke="#e7e5e4" stroke-width="1.5"/>
  <text x="444" y="120" font-family="-apple-system, 'Segoe UI', Helvetica, Arial, sans-serif" font-size="15" font-weight="700" fill="#1c1917">Chatbot</text>
  <line x1="422" y1="138" x2="758" y2="138" stroke="#eceae8" stroke-width="1.5"/>
  <rect x="562" y="160" width="174" height="41" rx="13" fill="#1c1917"/>
  <text x="577" y="185" font-family="-apple-system, 'Segoe UI', Helvetica, Arial, sans-serif" font-size="15" fill="#fafaf9">Explain recursion.</text>
  <rect x="444" y="217" width="182" height="62" rx="13" fill="#f5f5f4"/>
  <text x="459" y="242" font-family="-apple-system, 'Segoe UI', Helvetica, Arial, sans-serif" font-size="15" fill="#1c1917">Recursion is when a</text>
  <text x="459" y="263" font-family="-apple-system, 'Segoe UI', Helvetica, Arial, sans-serif" font-size="15" fill="#1c1917">function</text>
  <rect x="526" y="249" width="3" height="16" rx="1" fill="#b3441a"/>
  <text x="590" y="420" font-family="'SF Mono', Menlo, Consolas, monospace" font-size="14" fill="#78716c" text-anchor="middle">t = 0.7s</text>
  <path d="M 773 227 l 11 9 l -11 9" fill="none" stroke="#b3441a" stroke-width="3" stroke-linecap="round" stroke-linejoin="round"/>
  <rect x="804" y="86" width="336" height="300" rx="14" fill="#ffffff" stroke="#e7e5e4" stroke-width="1.5"/>
  <text x="826" y="120" font-family="-apple-system, 'Segoe UI', Helvetica, Arial, sans-serif" font-size="15" font-weight="700" fill="#1c1917">Chatbot</text>
  <line x1="804" y1="138" x2="1140" y2="138" stroke="#eceae8" stroke-width="1.5"/>
  <rect x="944" y="160" width="174" height="41" rx="13" fill="#1c1917"/>
  <text x="959" y="185" font-family="-apple-system, 'Segoe UI', Helvetica, Arial, sans-serif" font-size="15" fill="#fafaf9">Explain recursion.</text>
  <rect x="826" y="217" width="206" height="62" rx="13" fill="#f5f5f4"/>
  <text x="841" y="242" font-family="-apple-system, 'Segoe UI', Helvetica, Arial, sans-serif" font-size="15" fill="#1c1917">Recursion is when a</text>
  <text x="841" y="263" font-family="-apple-system, 'Segoe UI', Helvetica, Arial, sans-serif" font-size="15" fill="#1c1917">function calls itself.</text>
  <text x="972" y="420" font-family="'SF Mono', Menlo, Consolas, monospace" font-size="14" fill="#78716c" text-anchor="middle">t = 1.2s</text>
</svg>