<svg xmlns="http://www.w3.org/2000/svg" width="1120" height="730" viewBox="0 0 1120 730" font-family="-apple-system, 'Segoe UI', Helvetica, Arial, sans-serif">
  <rect width="1120" height="730" fill="#f5f5f4"/>
  <rect x="0" y="0" width="1120" height="64" fill="#f3f1ec"/>
  <line x1="0" y1="64" x2="1120" y2="64" stroke="#e2ded4" stroke-width="1.5"/>
  <circle cx="32" cy="32" r="8" fill="#d6d1c5"/><circle cx="60" cy="32" r="8" fill="#d6d1c5"/><circle cx="88" cy="32" r="8" fill="#d6d1c5"/>
  <rect x="300" y="14" width="520" height="36" rx="18" fill="#ffffff" stroke="#e2ded4"/>
  <text x="560" y="38" font-family="'SF Mono', Menlo, Consolas, monospace" font-size="16" fill="#5b554c" text-anchor="middle">vercel.com/new</text>
  <rect x="180" y="100" width="760" height="594" rx="16" fill="#ffffff" stroke="#e7e5e4" stroke-width="1.5"/>
  <text x="220" y="150" font-family="Georgia, 'Times New Roman', serif" font-size="26" fill="#1c1917">Configure Project</text>
  <text x="220" y="176" font-family="-apple-system, 'Segoe UI', Helvetica, Arial, sans-serif" font-size="14.5" fill="#78716c">Importing your-name/langgraph-tutorial from GitHub</text>
  <text x="220" y="216" font-family="-apple-system, 'Segoe UI', Helvetica, Arial, sans-serif" font-size="14" font-weight="600" fill="#78716c">Project Name</text>
  <rect x="220" y="230" width="680" height="46" rx="9" fill="#fbfaf8" stroke="#e7e5e4" stroke-width="1.5"/>
  <text x="236" y="259" font-family="'SF Mono', Menlo, Consolas, monospace" font-size="15.5" fill="#1c1917">langgraph-chatbot</text>
  <text x="220" y="316" font-family="-apple-system, 'Segoe UI', Helvetica, Arial, sans-serif" font-size="14" font-weight="600" fill="#78716c">Framework Preset</text>
  <rect x="220" y="330" width="680" height="46" rx="9" fill="#fbfaf8" stroke="#e7e5e4" stroke-width="1.5"/>
  <text x="236" y="359" font-family="'SF Mono', Menlo, Consolas, monospace" font-size="15.5" fill="#1c1917">Next.js</text>
  <text x="886" y="359" font-family="-apple-system, 'Segoe UI', Helvetica, Arial, sans-serif" font-size="13.5" fill="#a8a29e" text-anchor="end">detected</text>
  <text x="220" y="416" font-family="-apple-system, 'Segoe UI', Helvetica, Arial, sans-serif" font-size="14" font-weight="600" fill="#78716c">Root Directory</text>
  <circle cx="346.4" cy="411" r="3.5" fill="#b3441a"/>
  <rect x="220" y="430" width="680" height="46" rx="9" fill="#fbfaf8" stroke="#b3441a" stroke-width="2"/>
  <text x="236" y="459" font-family="'SF Mono', Menlo, Consolas, monospace" font-size="15.5" fill="#b3441a">frontend</text>
  <text x="886" y="459" font-family="-apple-system, 'Segoe UI', Helvetica, Arial, sans-serif" font-size="13.5" fill="#a8a29e" text-anchor="end">the Next.js app lives here</text>
  <text x="220" y="516" font-family="-apple-system, 'Segoe UI', Helvetica, Arial, sans-serif" font-size="14" font-weight="600" fill="#78716c">Environment Variables</text>
  <circle cx="392" cy="511" r="3.5" fill="#b3441a"/>
  <rect x="220" y="530" width="313" height="46" rx="9" fill="#fbfaf8" stroke="#b3441a" stroke-width="2"/>
  <text x="236" y="559" font-family="'SF Mono', Menlo, Consolas, monospace" font-size="14.5" fill="#b3441a">NEXT_PUBLIC_API_BASE_URL</text>
  <rect x="549" y="530" width="351" height="46" rx="9" fill="#fbfaf8" stroke="#b3441a" stroke-width="2"/>
  <text x="565" y="559" font-family="'SF Mono', Menlo, Consolas, monospace" font-size="14.5" fill="#b3441a">https://your-app.fly.dev</text>
  <rect x="220" y="608" width="680" height="50" rx="10" fill="#1c1917"/>
  <text x="560" y="640" font-family="-apple-system, 'Segoe UI', Helvetica, Arial, sans-serif" font-size="16" font-weight="700" fill="#fafaf9" text-anchor="middle">Deploy</text>
</svg>