<svg xmlns="http://www.w3.org/2000/svg" width="1120" height="570" viewBox="0 0 1120 570" font-family="-apple-system, 'Segoe UI', Helvetica, Arial, sans-serif">
  <rect width="1120" height="570" fill="#0c0a09"/>
  <rect x="0" y="0" width="1120" height="64" fill="#211e1a"/>
  <line x1="0" y1="64" x2="1120" y2="64" stroke="#2b2723" stroke-width="1.5"/>
  <circle cx="32" cy="32" r="8" fill="#3a3530"/><circle cx="60" cy="32" r="8" fill="#3a3530"/><circle cx="88" cy="32" r="8" fill="#3a3530"/>
  <rect x="300" y="14" width="520" height="36" rx="18" fill="#1a1816" stroke="#3a3530"/>
  <text x="560" y="38" font-family="'SF Mono', Menlo, Consolas, monospace" font-size="16" fill="#a49c90" text-anchor="middle">your-app.vercel.app</text>
  <rect x="200" y="98" width="720" height="438" rx="16" fill="#1c1917" stroke="#292524" stroke-width="1.5"/>
  <text x="228" y="139" font-family="-apple-system, 'Segoe UI', Helvetica, Arial, sans-serif" font-size="19" font-weight="700" fill="#fafaf9">Chatbot</text>
  <line x1="200" y1="164" x2="920" y2="164" stroke="#242020" stroke-width="1.5"/>
  
  <rect x="720" y="190" width="172" height="47" rx="16" fill="#fafaf9"/>
  <text x="738" y="219" font-family="-apple-system, 'Segoe UI', Helvetica, Arial, sans-serif" font-size="16" fill="#1c1917">My name is Alex.</text>
  <rect x="228" y="253" width="232" height="47" rx="16" fill="#292524"/>
  <text x="246" y="282" font-family="-apple-system, 'Segoe UI', Helvetica, Arial, sans-serif" font-size="16" fill="#fafaf9">Nice to meet you, Alex.</text>
  <rect x="728" y="316" width="164" height="47" rx="16" fill="#fafaf9"/>
  <text x="746" y="345" font-family="-apple-system, 'Segoe UI', Helvetica, Arial, sans-serif" font-size="16" fill="#1c1917">What's my name?</text>
  <rect x="228" y="379" width="325" height="47" rx="16" fill="#292524"/>
  <text x="246" y="408" font-family="-apple-system, 'Segoe UI', Helvetica, Arial, sans-serif" font-size="16" fill="#fafaf9">I have no idea, you never told me.</text>
  <line x1="200" y1="448" x2="920" y2="448" stroke="#242020" stroke-width="1.5"/>
  <rect x="224" y="472" width="580" height="44" rx="10" fill="#0c0a09" stroke="#292524" stroke-width="1.5"/>
  <text x="242" y="500" font-family="-apple-system, 'Segoe UI', Helvetica, Arial, sans-serif" font-size="15" fill="#78716c">Ask me anything...</text>
  <rect x="820" y="472" width="76" height="44" rx="10" fill="#fafaf9"/>
  <text x="858" y="500" font-family="-apple-system, 'Segoe UI', Helvetica, Arial, sans-serif" font-size="15" font-weight="700" fill="#1c1917" text-anchor="middle">Send</text>
</svg>